#N canvas -8 -8 1366 725 12;
#N canvas -8 -8 1366 725 sintetizadorOndas 0;
#X obj 36 495 *~;
#X obj 139 366 hsl 130 20 0 1 0 0 empty empty empty -2 -8 0 10 -262144
-1 -1 6450 1;
#X floatatom 36 148 5 0 0 0 - - -;
#X obj 36 203 phasor~;
#X obj 36 266 -~ 0.5;
#X obj 120 235 phasor~;
#X obj 121 267 -~ 0.5;
#X obj 121 203 *~ -1;
#X msg 103 172 0;
#X msg 187 204 0;
#X obj 36 299 *~ 2;
#X obj 120 300 *~ 2;
#X obj 133 335 clip~ 0 1;
#X obj 36 335 clip~ 0 1;
#X obj 36 369 +~;
#X msg 133 393 \$1 20;
#X obj 133 422 line~;
#X obj 323 489 *~;
#X floatatom 324 146 5 0 0 0 - - -;
#X obj 324 195 phasor~;
#X obj 323 226 -~ 0.5;
#X obj 434 197 phasor~;
#X obj 434 229 -~ 0.5;
#X obj 433 167 *~ -1;
#X msg 391 167 0;
#X obj 322 259 +~;
#X msg 501 168 0.5;
#X obj 437 259 hsl 130 20 0 1 0 0 empty empty empty -2 -8 0 10 -262144
-1 -1 6450 1;
#X msg 434 284 \$1 20;
#X obj 434 313 line~;
#X obj 35 534 tabwrite~ ondatriangular;
#X obj 320 535 tabwrite~ ondacuadrada;
#X obj 611 492 *~;
#X floatatom 604 193 5 0 0 0 - - -;
#X obj 604 224 phasor~;
#X obj 683 257 hsl 130 20 0 1 0 0 empty empty empty -2 -8 0 10 -262144
-1 -1 6450 1;
#X msg 680 282 \$1 20;
#X obj 680 311 line~;
#X obj 865 504 *~;
#X obj 892 413 osc~;
#X obj 604 147 * 3;
#X obj 36 106 mtof;
#X obj 866 651 *~;
#X msg 920 593 \$1 20;
#X obj 920 628 line~;
#X obj 895 385 hsl 130 20 1 100 0 0 empty empty empty -2 -8 0 10 -262144
-1 -1 1173 1;
#X obj 951 686 tabwrite~ sintesis;
#X obj 867 691 dac~;
#N canvas 0 50 450 250 (subpatch) 0;
#X array sintesis 200 float 1;
#A 0 0 0 0 0 0 0 0 0 0 0 0 0 0 0 0 0 0 0 0 0 0 0 0 0 0 0 0 -0.354839
0 0 0 0 0 0 0 0 0 0 0 0 0 0 0 0 0 0.282258 0 0 0 0 0 0 0 0 0 0 0 0
0 0 0 0 0 0 0 0 0 0 0 0 0 0 0 0 0 0 0 0 0 0 0 0 0 0 0 0 0 0 0 0 0 0
0 0 0 0 0 0 0 0 0 0 0 0 0 0 0 0 0 0 0 0 0 0 0 0 0 0 0 0 0 0 0 0 0 0
0 0 0 0 0 0 0 0 0 0 0 0 0 0 0 0 0 0 0 0 0 0 0 0 0 0 0 0 0 0 0 0 0 0
0 0 0 0 0 0 0 0 0 0 0 0 0 0 0 0 0 0 0 0 0 0 0 0 0 0 0 0 0 0 0 0 0 0
0 0 0 0 0 0;
#X coords 0 1 199 -1 350 248 1 0 0;
#X restore 879 50 graph;
#X obj 204 420 metro 50;
#X obj 204 400 tgl 15 0 empty empty empty 17 7 0 10 -262144 -1 -1 1
1;
#X obj 336 425 metro 50;
#X obj 336 405 tgl 15 0 empty empty empty 17 7 0 10 -262144 -1 -1 1
1;
#X obj 613 425 metro 50;
#X obj 613 405 tgl 15 0 empty empty empty 17 7 0 10 -262144 -1 -1 1
1;
#X obj 987 645 metro 50;
#X obj 987 621 tgl 15 0 empty empty empty 17 7 0 10 -262144 -1 -1 1
1;
#X obj 609 538 tabwrite~ ondasierra;
#X obj 36 400 -~ 0.5;
#X obj 866 535 *~;
#X obj 905 512 line~;
#X msg 905 484 1 \, 0 1500;
#X text 91 105 Convertidor de MIDI a frecuencia;
#X obj 604 253 -~ 0.5;
#X obj 866 604 hip~;
#X obj 906 570 hsl 130 20 100 600 0 0 empty empty empty -2 -8 0 10
-262144 -1 -1 0 1;
#X obj 233 305 loadbang;
#X msg 233 334 0.5;
#X obj 513 199 loadbang;
#X msg 513 228 0.5;
#X obj 684 225 loadbang;
#X msg 773 225 0.5;
#X obj 893 353 loadbang;
#X msg 982 353 10;
#X obj 905 540 loadbang;
#X msg 994 540 50;
#X obj 613 375 loadbang;
#X obj 361 395 loadbang;
#X obj 230 391 loadbang;
#X obj 1013 619 loadbang;
#X text 918 309 onda general;
#X text 940 412 amplitud;
#X msg 751 280 Volumen onda;
#X msg 494 282 Volumen onda;
#X msg 276 365 Volumen onda;
#X obj 36 48 inlet;
#X obj 1157 600 outlet;
#X obj 1040 485 inlet;
#X connect 0 0 30 0;
#X connect 0 0 38 0;
#X connect 1 0 15 0;
#X connect 2 0 3 0;
#X connect 2 0 7 0;
#X connect 2 0 8 0;
#X connect 2 0 9 0;
#X connect 2 0 61 0;
#X connect 3 0 4 0;
#X connect 4 0 10 0;
#X connect 5 0 6 0;
#X connect 6 0 11 0;
#X connect 7 0 5 0;
#X connect 8 0 3 1;
#X connect 9 0 5 1;
#X connect 10 0 13 0;
#X connect 11 0 12 0;
#X connect 12 0 14 1;
#X connect 13 0 14 0;
#X connect 14 0 58 0;
#X connect 15 0 16 0;
#X connect 16 0 0 1;
#X connect 17 0 31 0;
#X connect 17 0 38 0;
#X connect 18 0 19 0;
#X connect 18 0 23 0;
#X connect 18 0 24 0;
#X connect 18 0 26 0;
#X connect 19 0 20 0;
#X connect 20 0 25 0;
#X connect 21 0 22 0;
#X connect 22 0 25 1;
#X connect 23 0 21 0;
#X connect 24 0 19 1;
#X connect 25 0 17 0;
#X connect 26 0 21 1;
#X connect 27 0 28 0;
#X connect 28 0 29 0;
#X connect 29 0 17 1;
#X connect 32 0 38 0;
#X connect 32 0 57 0;
#X connect 33 0 34 0;
#X connect 34 0 63 0;
#X connect 35 0 36 0;
#X connect 36 0 37 0;
#X connect 37 0 32 1;
#X connect 38 0 59 0;
#X connect 39 0 38 1;
#X connect 40 0 33 0;
#X connect 41 0 2 0;
#X connect 41 0 18 0;
#X connect 41 0 40 0;
#X connect 42 0 46 0;
#X connect 42 0 47 0;
#X connect 42 0 47 1;
#X connect 43 0 44 0;
#X connect 44 0 42 1;
#X connect 45 0 39 0;
#X connect 49 0 30 0;
#X connect 50 0 49 0;
#X connect 51 0 31 0;
#X connect 52 0 51 0;
#X connect 53 0 57 0;
#X connect 54 0 53 0;
#X connect 55 0 46 0;
#X connect 56 0 55 0;
#X connect 58 0 0 0;
#X connect 59 0 64 0;
#X connect 60 0 59 1;
#X connect 61 0 60 0;
#X connect 63 0 32 0;
#X connect 64 0 42 0;
#X connect 65 0 64 1;
#X connect 66 0 67 0;
#X connect 67 0 1 0;
#X connect 68 0 69 0;
#X connect 69 0 27 0;
#X connect 70 0 71 0;
#X connect 71 0 35 0;
#X connect 72 0 73 0;
#X connect 73 0 45 0;
#X connect 74 0 75 0;
#X connect 75 0 65 0;
#X connect 76 0 54 0;
#X connect 77 0 52 0;
#X connect 78 0 50 0;
#X connect 79 0 56 0;
#X connect 85 0 41 0;
#X connect 87 0 43 0;
#X restore 31 269 pd sintetizadorOndas;
#X msg 31 209 261;
#X msg 74 209 293;
#X msg 122 208 329;
#X msg 166 209 349;
#X msg 209 209 392;
#X msg 252 210 440;
#X msg 295 210 493;
#X text 28 178 DO RE MI FA SOL LA SI en valores MIDI;
#X obj 31 50 key;
#X floatatom 31 87 5 0 0 0 - - -;
#X obj 31 125 select 49 50 51 52 53 54 55;
#X obj 31 153 bng 15 250 50 0 empty empty empty 17 7 0 10 -262144 -1
-1;
#X obj 57 154 bng 15 250 50 0 empty empty empty 17 7 0 10 -262144 -1
-1;
#X obj 84 155 bng 15 250 50 0 empty empty empty 17 7 0 10 -262144 -1
-1;
#X obj 110 155 bng 15 250 50 0 empty empty empty 17 7 0 10 -262144
-1 -1;
#X obj 137 154 bng 15 250 50 0 empty empty empty 17 7 0 10 -262144
-1 -1;
#X obj 163 153 bng 15 250 50 0 empty empty empty 17 7 0 10 -262144
-1 -1;
#X obj 190 153 bng 15 250 50 0 empty empty empty 17 7 0 10 -262144
-1 -1;
#X obj 257 127 hsl 130 20 0 1 0 0 empty empty empty -2 -8 0 10 -262144
-1 -1 6450 1;
#X obj 384 169 loadbang;
#X msg 384 198 0.5;
#X text 252 104 Volumen general sintetizador ondas;
#N canvas -8 -8 1366 725 reproductorAudio 0;
#N canvas 0 50 450 250 (subpatch) 0;
#X array muestra 272054 float 0;
#X coords 0 1 272053 -1 200 140 1;
#X restore 417 67 graph;
#X obj 188 178 soundfiler;
#X floatatom 188 222 6 0 0 0 - - -;
#X obj 188 91 openpanel;
#X msg 188 135 read -resize \$1 muestra;
#X obj 49 179 *~;
#X obj 48 214 dac~;
#X floatatom 124 169 5 0 1 0 - - -;
#X obj 51 103 line~;
#X obj 50 141 tabread4~ muestra;
#X obj 290 197 expr $f1 / 44100;
#X floatatom 290 227 6 0 0 0 - - -;
#X text 45 38 CARACTERISTICAS;
#X text 27 6 REPRODUCTOR;
#X msg 51 62 0 \, 272054 6169;
#X text 182 247 Carac 1;
#X text 287 247 Carac 2;
#X obj 188 42 inlet;
#X obj 112 199 inlet;
#X obj 130 306 inlet;
#X connect 1 0 2 0;
#X connect 1 0 10 0;
#X connect 3 0 4 0;
#X connect 4 0 1 0;
#X connect 5 0 6 0;
#X connect 8 0 9 0;
#X connect 9 0 5 0;
#X connect 10 0 11 0;
#X connect 17 0 3 0;
#X connect 18 0 5 1;
#X connect 19 0 8 0;
#X restore 558 170 pd reproductorAudio;
#X obj 558 105 bng 15 250 50 0 empty empty empty 17 7 0 10 -262144
-1 -1;
#X obj 613 104 hsl 70 15 0 10 0 0 empty empty empty -2 -8 0 10 -262144
-1 -1 0 1;
#X text 699 99 CARACTERISTICAS;
#X msg 704 123 0 \, 272054 6169;
#X text 721 142 Carac 1;
#X text 776 142 Carac 2;
#X text 605 79 Volumen reproductor, f 21;
#N canvas -8 -8 1366 725 efectos 0;
#X text 23 4 EFECTOS;
#X obj 23 146 *~;
#X obj 24 212 dac~;
#X obj 25 70 line~;
#X obj 24 108 tabread4~ muestra;
#X obj 24 178 freeverb~;
#X text 187 48 REVERB;
#X obj 23 290 line~;
#X obj 22 328 tabread4~ muestra;
#X obj 22 362 delwrite~ delay 1500;
#X obj 192 399 delread~ delay;
#X floatatom 221 516 5 0 1499 0 - - -;
#X obj 190 363 +~;
#X text 189 260 DELAY;
#X obj 25 34 inlet;
#X obj 104 159 inlet;
#X obj 78 127 inlet;
#X obj 23 252 inlet;
#X obj 192 454 inlet;
#X connect 1 0 5 0;
#X connect 3 0 4 0;
#X connect 4 0 1 0;
#X connect 5 0 2 0;
#X connect 5 0 2 1;
#X connect 7 0 8 0;
#X connect 8 0 9 0;
#X connect 8 0 12 0;
#X connect 10 0 12 1;
#X connect 11 0 10 0;
#X connect 14 0 3 0;
#X connect 15 0 5 0;
#X connect 16 0 1 1;
#X connect 17 0 7 0;
#X connect 18 0 10 0;
#X restore 901 142 pd efectos de reverb y delay;
#X msg 1031 102 dry \$1;
#X msg 1114 103 wet \$1;
#X msg 1195 103 roomsize \$1;
#X obj 1034 74 hsl 70 15 0 1 0 0 empty empty empty -2 -8 0 10 -262144
-1 -1 0 1;
#X obj 1117 74 hsl 70 15 0 1 0 0 empty empty empty -2 -8 0 10 -262144
-1 -1 0 1;
#X obj 1198 74 hsl 70 15 0 1 0 0 empty empty empty -2 -8 0 10 -262144
-1 -1 0 1;
#X obj 903 74 hsl 70 15 0 10 0 0 empty empty empty -2 -8 0 10 -262144
-1 -1 0 1;
#X text 889 51 Volumen reverb;
#X text 1029 50 Caracteristicas reverb;
#X floatatom 903 195 5 0 1499 0 - - -;
#X text 899 222 retraso reverb en ms;
#X text 21 16 SINTETIZADOR MIDI;
#X text 529 85 Insertar;
#X text 546 21 REPRODUCTOR;
#X text 893 20 EFECTOS;
#X text 555 207 ENTRAR A pd reproductorAudio para copiar los valores
de carac 1 y carac 2, f 24;
#X text 30 311 AL EJECUTAR EL PATCH Y OPRIMIR 1 2 3 4 5 6 7 SONARÁ
DO RE MI FA SOL LA SI RESPECTIVAMENTE., f 25;
#X text 857 327 INVERSA Carac1 \, 0 Carac2 RAPIDA 0 \, Carac1 Carac2/2
Lento 0 \, Carac1 Carac2*2, f 19;
#X connect 1 0 0 0;
#X connect 2 0 0 0;
#X connect 3 0 0 0;
#X connect 4 0 0 0;
#X connect 5 0 0 0;
#X connect 6 0 0 0;
#X connect 7 0 0 0;
#X connect 9 0 10 0;
#X connect 10 0 11 0;
#X connect 11 0 12 0;
#X connect 11 1 13 0;
#X connect 11 2 14 0;
#X connect 11 3 15 0;
#X connect 11 4 16 0;
#X connect 11 5 17 0;
#X connect 11 6 18 0;
#X connect 12 0 1 0;
#X connect 13 0 2 0;
#X connect 14 0 3 0;
#X connect 15 0 4 0;
#X connect 16 0 5 0;
#X connect 17 0 6 0;
#X connect 18 0 7 0;
#X connect 19 0 0 1;
#X connect 20 0 21 0;
#X connect 21 0 19 0;
#X connect 24 0 23 2;
#X connect 25 0 23 0;
#X connect 27 0 23 1;
#X connect 27 0 31 1;
#X connect 27 0 31 0;
#X connect 32 0 31 3;
#X connect 33 0 31 3;
#X connect 34 0 31 3;
#X connect 35 0 32 0;
#X connect 36 0 33 0;
#X connect 37 0 34 0;
#X connect 38 0 31 2;
#X connect 41 0 31 0;
#X coords 0 0 4 4 0 0 0;
